# Blender 4.4.0
# www.blender.org
mtllib grass_1.mtl
o Plane
v 0.045210 0.000000 0.206167
v -0.054913 -1.000000 0.510916
v 0.077654 1.000000 -0.111170
v -0.054913 -1.000000 -0.191650
v -0.054913 -1.000000 0.159633
v 0.045210 0.000000 -0.145116
v -0.034913 -1.000000 0.510916
v -0.034913 -1.000000 -0.191650
v -0.034913 -1.000000 0.159633
v 0.055210 0.000000 0.206167
v 0.055210 0.000000 -0.145116
vn -0.9995 0.0324 -0.0000
vn -0.9950 0.0996 -0.0000
vn -0.0000 -1.0000 -0.0000
vn -0.0000 0.2915 0.9566
vn -0.0000 0.3025 0.9532
vn 0.9997 -0.0224 -0.0000
vn 0.9960 -0.0898 -0.0000
vn -0.0000 0.0339 -0.9994
vn -0.0000 0.0465 -0.9989
vt 0.000000 0.000000
s 0
usemtl Material.001
f 3/1/1 6/1/1 1/1/1
f 1/1/2 5/1/2 2/1/2
f 1/1/2 6/1/2 5/1/2
f 6/1/2 4/1/2 5/1/2
f 2/1/3 5/1/3 9/1/3 7/1/3
f 5/1/3 4/1/3 8/1/3 9/1/3
f 2/1/4 7/1/4 1/1/4
f 7/1/4 10/1/4 1/1/4
f 3/1/5 1/1/5 10/1/5
f 10/1/6 11/1/6 3/1/6
f 10/1/7 7/1/7 11/1/7
f 9/1/7 11/1/7 7/1/7
f 3/1/8 11/1/8 6/1/8
f 8/1/7 11/1/7 9/1/7
f 6/1/9 11/1/9 8/1/9 4/1/9
l 6 10
