# Blender 4.4.0
# www.blender.org
mtllib ramp.mtl
o Plane
v -1.000000 0.000000 1.000000
v 1.000000 0.000000 1.000000
v -1.000000 0.000000 -1.000000
v 1.000000 0.000000 -1.000000
v -1.000000 1.000000 1.000000
v -1.000000 1.000000 -1.000000
v 1.000000 0.000000 0.800000
v 1.000000 0.000000 0.600000
v 1.000000 0.000000 0.400000
v 1.000000 0.000000 0.200000
v 1.000000 0.000000 0.000000
v 1.000000 0.000000 -0.200000
v 1.000000 0.000000 -0.400000
v 1.000000 0.000000 -0.600000
v 1.000000 0.000000 -0.800000
v -1.000000 1.000000 -0.800000
v -1.000000 1.000000 -0.600000
v -1.000000 1.000000 -0.400000
v -1.000000 1.000000 -0.200000
v -1.000000 1.000000 0.000000
v -1.000000 1.000000 0.200000
v -1.000000 1.000000 0.400000
v -1.000000 1.000000 0.600000
v -1.000000 1.000000 0.800000
v 0.800000 0.100000 1.000000
v 0.600000 0.200000 1.000000
v 0.400000 0.300000 1.000000
v 0.200000 0.400000 1.000000
v 0.000000 0.500000 1.000000
v -0.200000 0.600000 1.000000
v -0.400000 0.700000 1.000000
v -0.600000 0.800000 1.000000
v -0.800000 0.900000 1.000000
v 0.800000 0.100000 -1.000000
v 0.600000 0.200000 -1.000000
v 0.400000 0.300000 -1.000000
v 0.200000 0.400000 -1.000000
v 0.000000 0.500000 -1.000000
v -0.200000 0.600000 -1.000000
v -0.400000 0.700000 -1.000000
v -0.600000 0.800000 -1.000000
v -0.800000 0.900000 -1.000000
v 0.800000 0.100000 0.800000
v 0.600000 0.200000 0.800000
v 0.400000 0.300000 0.800000
v 0.200000 0.400000 0.800000
v 0.000000 0.500000 0.800000
v -0.200000 0.600000 0.800000
v -0.400000 0.700000 0.800000
v -0.600000 0.800000 0.800000
v -0.800000 0.900000 0.800000
v 0.800000 0.100000 0.600000
v 0.600000 0.200000 0.600000
v 0.400000 0.300000 0.600000
v 0.200000 0.400000 0.600000
v 0.000000 0.500000 0.600000
v -0.200000 0.600000 0.600000
v -0.400000 0.700000 0.600000
v -0.600000 0.800000 0.600000
v -0.800000 0.900000 0.600000
v 0.800000 0.100000 0.400000
v 0.600000 0.200000 0.400000
v 0.400000 0.300000 0.400000
v 0.200000 0.400000 0.400000
v 0.000000 0.500000 0.400000
v -0.200000 0.600000 0.400000
v -0.400000 0.700000 0.400000
v -0.600000 0.800000 0.400000
v -0.800000 0.900000 0.400000
v 0.800000 0.100000 0.200000
v 0.600000 0.200000 0.200000
v 0.400000 0.300000 0.200000
v 0.200000 0.400000 0.200000
v 0.000000 0.500000 0.200000
v -0.200000 0.600000 0.200000
v -0.400000 0.700000 0.200000
v -0.600000 0.800000 0.200000
v -0.800000 0.900000 0.200000
v 0.800000 0.100000 0.000000
v 0.600000 0.200000 0.000000
v 0.400000 0.300000 0.000000
v 0.200000 0.400000 0.000000
v 0.000000 0.500000 0.000000
v -0.200000 0.600000 0.000000
v -0.400000 0.700000 0.000000
v -0.600000 0.800000 0.000000
v -0.800000 0.900000 0.000000
v 0.800000 0.100000 -0.200000
v 0.600000 0.200000 -0.200000
v 0.400000 0.300000 -0.200000
v 0.200000 0.400000 -0.200000
v 0.000000 0.500000 -0.200000
v -0.200000 0.600000 -0.200000
v -0.400000 0.700000 -0.200000
v -0.600000 0.800000 -0.200000
v -0.800000 0.900000 -0.200000
v 0.800000 0.100000 -0.400000
v 0.600000 0.200000 -0.400000
v 0.400000 0.300000 -0.400000
v 0.200000 0.400000 -0.400000
v 0.000000 0.500000 -0.400000
v -0.200000 0.600000 -0.400000
v -0.400000 0.700000 -0.400000
v -0.600000 0.800000 -0.400000
v -0.800000 0.900000 -0.400000
v 0.800000 0.100000 -0.600000
v 0.600000 0.200000 -0.600000
v 0.400000 0.300000 -0.600000
v 0.200000 0.400000 -0.600000
v 0.000000 0.500000 -0.600000
v -0.200000 0.600000 -0.600000
v -0.400000 0.700000 -0.600000
v -0.600000 0.800000 -0.600000
v -0.800000 0.900000 -0.600000
v 0.800000 0.100000 -0.800000
v 0.600000 0.200000 -0.800000
v 0.400000 0.300000 -0.800000
v 0.200000 0.400000 -0.800000
v 0.000000 0.500000 -0.800000
v -0.200000 0.600000 -0.800000
v -0.400000 0.700000 -0.800000
v -0.600000 0.800000 -0.800000
v -0.800000 0.900000 -0.800000
v 1.089443 0.178885 1.000000
v 1.089443 0.178885 -1.000000
v -0.910557 1.178885 1.000000
v -0.910557 1.178885 -1.000000
v 1.089443 0.178885 0.800000
v 1.089443 0.178885 -0.800000
v -0.910557 1.178885 -0.800000
v -0.910557 1.178885 0.800000
v 0.889443 0.278885 1.000000
v 0.689443 0.378885 1.000000
v 0.489443 0.478885 1.000000
v 0.289443 0.578885 1.000000
v 0.089443 0.678885 1.000000
v -0.110557 0.778885 1.000000
v -0.310557 0.878886 1.000000
v -0.510557 0.978885 1.000000
v -0.710557 1.078885 1.000000
v 0.889443 0.278885 -1.000000
v 0.689443 0.378885 -1.000000
v 0.489443 0.478885 -1.000000
v 0.289443 0.578885 -1.000000
v 0.089443 0.678885 -1.000000
v -0.110557 0.778885 -1.000000
v -0.310557 0.878886 -1.000000
v -0.510557 0.978885 -1.000000
v -0.710557 1.078885 -1.000000
v 0.889443 0.278885 0.800000
v 0.689443 0.378885 0.800000
v 0.489443 0.478885 0.800000
v 0.289443 0.578885 0.800000
v 0.089443 0.678885 0.800000
v -0.110557 0.778885 0.800000
v -0.310557 0.878886 0.800000
v -0.510557 0.978885 0.800000
v -0.710557 1.078885 0.800000
v 0.889443 0.278885 -0.800000
v 0.689443 0.378885 -0.800000
v 0.489443 0.478885 -0.800000
v 0.289443 0.578885 -0.800000
v 0.089443 0.678885 -0.800000
v -0.110557 0.778885 -0.800000
v -0.310557 0.878886 -0.800000
v -0.510557 0.978885 -0.800000
v -0.710557 1.078885 -0.800000
vn -0.0000 -1.0000 -0.0000
vn 0.8944 -0.4472 -0.0000
vn -0.0000 -0.0000 -1.0000
vn -0.0000 -0.0000 1.0000
vn -1.0000 -0.0000 -0.0000
vn 0.4472 0.8944 -0.0000
vn -0.8944 0.4472 -0.0000
vt 0.000000 0.000000
vt 0.000000 1.000000
vt 1.000000 1.000000
vt 1.000000 0.900000
vt 1.000000 0.800000
vt 1.000000 0.700000
vt 1.000000 0.600000
vt 1.000000 0.500000
vt 1.000000 0.400000
vt 1.000000 0.300000
vt 1.000000 0.200000
vt 1.000000 0.100000
vt 1.000000 0.000000
vt 0.100000 1.000000
vt 0.200000 1.000000
vt 0.300000 1.000000
vt 0.400000 1.000000
vt 0.500000 1.000000
vt 0.600000 1.000000
vt 0.700000 1.000000
vt 0.800000 1.000000
vt 0.900000 1.000000
vt 0.900000 0.000000
vt 0.800000 0.000000
vt 0.700000 0.000000
vt 0.600000 0.000000
vt 0.500000 0.000000
vt 0.400000 0.000000
vt 0.300000 0.000000
vt 0.200000 0.000000
vt 0.100000 0.000000
vt 0.000000 0.100000
vt 0.000000 0.200000
vt 0.000000 0.300000
vt 0.000000 0.400000
vt 0.000000 0.500000
vt 0.000000 0.600000
vt 0.000000 0.700000
vt 0.000000 0.800000
vt 0.000000 0.900000
vt 0.100000 0.100000
vt 0.100000 0.200000
vt 0.100000 0.300000
vt 0.100000 0.400000
vt 0.100000 0.500000
vt 0.100000 0.600000
vt 0.100000 0.700000
vt 0.100000 0.800000
vt 0.100000 0.900000
vt 0.200000 0.100000
vt 0.200000 0.900000
vt 0.300000 0.100000
vt 0.300000 0.900000
vt 0.900000 0.200000
vt 0.900000 0.100000
vt 0.800000 0.200000
vt 0.800000 0.100000
vt 0.700000 0.200000
vt 0.700000 0.100000
vt 0.600000 0.200000
vt 0.600000 0.100000
vt 0.500000 0.200000
vt 0.500000 0.100000
vt 0.400000 0.200000
vt 0.400000 0.100000
vt 0.300000 0.200000
vt 0.200000 0.200000
vt 0.900000 0.300000
vt 0.800000 0.300000
vt 0.700000 0.300000
vt 0.600000 0.300000
vt 0.500000 0.300000
vt 0.400000 0.300000
vt 0.300000 0.300000
vt 0.200000 0.300000
vt 0.900000 0.400000
vt 0.800000 0.400000
vt 0.700000 0.400000
vt 0.600000 0.400000
vt 0.500000 0.400000
vt 0.400000 0.400000
vt 0.300000 0.400000
vt 0.200000 0.400000
vt 0.900000 0.500000
vt 0.800000 0.500000
vt 0.700000 0.500000
vt 0.600000 0.500000
vt 0.500000 0.500000
vt 0.400000 0.500000
vt 0.300000 0.500000
vt 0.200000 0.500000
vt 0.900000 0.600000
vt 0.800000 0.600000
vt 0.700000 0.600000
vt 0.600000 0.600000
vt 0.500000 0.600000
vt 0.400000 0.600000
vt 0.300000 0.600000
vt 0.200000 0.600000
vt 0.900000 0.700000
vt 0.800000 0.700000
vt 0.700000 0.700000
vt 0.600000 0.700000
vt 0.500000 0.700000
vt 0.400000 0.700000
vt 0.300000 0.700000
vt 0.200000 0.700000
vt 0.900000 0.800000
vt 0.800000 0.800000
vt 0.700000 0.800000
vt 0.600000 0.800000
vt 0.500000 0.800000
vt 0.400000 0.800000
vt 0.300000 0.800000
vt 0.200000 0.800000
vt 0.900000 0.900000
vt 0.800000 0.900000
vt 0.700000 0.900000
vt 0.600000 0.900000
vt 0.500000 0.900000
vt 0.400000 0.900000
s 0
usemtl Material.001
f 1/1/1 3/2/1 4/3/1 15/4/1 14/5/1 13/6/1 12/7/1 11/8/1 10/9/1 9/10/1 8/11/1 7/12/1 2/13/1
f 15/4/2 4/3/2 125/3/2 129/4/2
f 3/2/3 6/2/3 42/14/3 41/15/3 40/16/3 39/17/3 38/18/3 37/19/3 36/20/3 35/21/3 34/22/3 4/3/3
f 1/1/4 2/13/4 25/23/4 26/24/4 27/25/4 28/26/4 29/27/4 30/28/4 31/29/4 32/30/4 33/31/4 5/1/4
f 3/2/5 1/1/5 5/1/5 24/32/5 23/33/5 22/34/5 21/35/5 20/36/5 19/37/5 18/38/5 17/39/5 16/40/5 6/2/5
f 39/17/3 40/16/3 147/16/3 146/17/3
f 51/41/6 60/42/6 23/33/6 24/32/6
f 60/42/6 69/43/6 22/34/6 23/33/6
f 69/43/6 78/44/6 21/35/6 22/34/6
f 78/44/6 87/45/6 20/36/6 21/35/6
f 87/45/6 96/46/6 19/37/6 20/36/6
f 96/46/6 105/47/6 18/38/6 19/37/6
f 105/47/6 114/48/6 17/39/6 18/38/6
f 114/48/6 123/49/6 16/40/6 17/39/6
f 26/24/4 25/23/4 132/23/4 133/24/4
f 38/18/3 39/17/3 146/17/3 145/18/3
f 50/50/3 51/41/3 158/41/3 157/50/3
f 25/23/4 2/13/4 124/13/4 132/23/4
f 123/49/4 122/51/4 166/51/4 167/49/4
f 37/19/3 38/18/3 145/18/3 144/19/3
f 49/52/3 50/50/3 157/50/3 156/52/3
f 122/51/4 121/53/4 165/53/4 166/51/4
f 36/20/3 37/19/3 144/19/3 143/20/3
f 7/12/6 8/11/6 52/54/6 43/55/6
f 43/55/6 52/54/6 53/56/6 44/57/6
f 44/57/6 53/56/6 54/58/6 45/59/6
f 45/59/6 54/58/6 55/60/6 46/61/6
f 46/61/6 55/60/6 56/62/6 47/63/6
f 47/63/6 56/62/6 57/64/6 48/65/6
f 48/65/6 57/64/6 58/66/6 49/52/6
f 49/52/6 58/66/6 59/67/6 50/50/6
f 50/50/6 59/67/6 60/42/6 51/41/6
f 8/11/6 9/10/6 61/68/6 52/54/6
f 52/54/6 61/68/6 62/69/6 53/56/6
f 53/56/6 62/69/6 63/70/6 54/58/6
f 54/58/6 63/70/6 64/71/6 55/60/6
f 55/60/6 64/71/6 65/72/6 56/62/6
f 56/62/6 65/72/6 66/73/6 57/64/6
f 57/64/6 66/73/6 67/74/6 58/66/6
f 58/66/6 67/74/6 68/75/6 59/67/6
f 59/67/6 68/75/6 69/43/6 60/42/6
f 9/10/6 10/9/6 70/76/6 61/68/6
f 61/68/6 70/76/6 71/77/6 62/69/6
f 62/69/6 71/77/6 72/78/6 63/70/6
f 63/70/6 72/78/6 73/79/6 64/71/6
f 64/71/6 73/79/6 74/80/6 65/72/6
f 65/72/6 74/80/6 75/81/6 66/73/6
f 66/73/6 75/81/6 76/82/6 67/74/6
f 67/74/6 76/82/6 77/83/6 68/75/6
f 68/75/6 77/83/6 78/44/6 69/43/6
f 10/9/6 11/8/6 79/84/6 70/76/6
f 70/76/6 79/84/6 80/85/6 71/77/6
f 71/77/6 80/85/6 81/86/6 72/78/6
f 72/78/6 81/86/6 82/87/6 73/79/6
f 73/79/6 82/87/6 83/88/6 74/80/6
f 74/80/6 83/88/6 84/89/6 75/81/6
f 75/81/6 84/89/6 85/90/6 76/82/6
f 76/82/6 85/90/6 86/91/6 77/83/6
f 77/83/6 86/91/6 87/45/6 78/44/6
f 11/8/6 12/7/6 88/92/6 79/84/6
f 79/84/6 88/92/6 89/93/6 80/85/6
f 80/85/6 89/93/6 90/94/6 81/86/6
f 81/86/6 90/94/6 91/95/6 82/87/6
f 82/87/6 91/95/6 92/96/6 83/88/6
f 83/88/6 92/96/6 93/97/6 84/89/6
f 84/89/6 93/97/6 94/98/6 85/90/6
f 85/90/6 94/98/6 95/99/6 86/91/6
f 86/91/6 95/99/6 96/46/6 87/45/6
f 12/7/6 13/6/6 97/100/6 88/92/6
f 88/92/6 97/100/6 98/101/6 89/93/6
f 89/93/6 98/101/6 99/102/6 90/94/6
f 90/94/6 99/102/6 100/103/6 91/95/6
f 91/95/6 100/103/6 101/104/6 92/96/6
f 92/96/6 101/104/6 102/105/6 93/97/6
f 93/97/6 102/105/6 103/106/6 94/98/6
f 94/98/6 103/106/6 104/107/6 95/99/6
f 95/99/6 104/107/6 105/47/6 96/46/6
f 13/6/6 14/5/6 106/108/6 97/100/6
f 97/100/6 106/108/6 107/109/6 98/101/6
f 98/101/6 107/109/6 108/110/6 99/102/6
f 99/102/6 108/110/6 109/111/6 100/103/6
f 100/103/6 109/111/6 110/112/6 101/104/6
f 101/104/6 110/112/6 111/113/6 102/105/6
f 102/105/6 111/113/6 112/114/6 103/106/6
f 103/106/6 112/114/6 113/115/6 104/107/6
f 104/107/6 113/115/6 114/48/6 105/47/6
f 14/5/6 15/4/6 115/116/6 106/108/6
f 106/108/6 115/116/6 116/117/6 107/109/6
f 107/109/6 116/117/6 117/118/6 108/110/6
f 108/110/6 117/118/6 118/119/6 109/111/6
f 109/111/6 118/119/6 119/120/6 110/112/6
f 110/112/6 119/120/6 120/121/6 111/113/6
f 111/113/6 120/121/6 121/53/6 112/114/6
f 112/114/6 121/53/6 122/51/6 113/115/6
f 113/115/6 122/51/6 123/49/6 114/48/6
f 48/65/3 49/52/3 156/52/3 155/65/3
f 121/53/4 120/121/4 164/121/4 165/53/4
f 35/21/3 36/20/3 143/20/3 142/21/3
f 47/63/3 48/65/3 155/65/3 154/63/3
f 120/121/4 119/120/4 163/120/4 164/121/4
f 34/22/3 35/21/3 142/21/3 141/22/3
f 46/61/3 47/63/3 154/63/3 153/61/3
f 119/120/4 118/119/4 162/119/4 163/120/4
f 4/3/3 34/22/3 141/22/3 125/3/3
f 167/49/6 149/14/6 127/2/6 130/40/6
f 140/31/6 158/41/6 131/32/6 126/1/6
f 124/13/6 128/12/6 150/55/6 132/23/6
f 132/23/6 150/55/6 151/57/6 133/24/6
f 133/24/6 151/57/6 152/59/6 134/25/6
f 134/25/6 152/59/6 153/61/6 135/26/6
f 135/26/6 153/61/6 154/63/6 136/27/6
f 136/27/6 154/63/6 155/65/6 137/28/6
f 137/28/6 155/65/6 156/52/6 138/29/6
f 138/29/6 156/52/6 157/50/6 139/30/6
f 139/30/6 157/50/6 158/41/6 140/31/6
f 129/4/6 125/3/6 141/22/6 159/116/6
f 159/116/6 141/22/6 142/21/6 160/117/6
f 160/117/6 142/21/6 143/20/6 161/118/6
f 161/118/6 143/20/6 144/19/6 162/119/6
f 162/119/6 144/19/6 145/18/6 163/120/6
f 163/120/6 145/18/6 146/17/6 164/121/6
f 164/121/6 146/17/6 147/16/6 165/53/6
f 165/53/6 147/16/6 148/15/6 166/51/6
f 166/51/6 148/15/6 149/14/6 167/49/6
f 27/25/4 26/24/4 133/24/4 134/25/4
f 40/16/3 41/15/3 148/15/3 147/16/3
f 28/26/4 27/25/4 134/25/4 135/26/4
f 41/15/3 42/14/3 149/14/3 148/15/3
f 24/32/7 5/1/7 126/1/7 131/32/7
f 29/27/4 28/26/4 135/26/4 136/27/4
f 16/40/4 123/49/4 167/49/4 130/40/4
f 6/2/7 16/40/7 130/40/7 127/2/7
f 51/41/3 24/32/3 131/32/3 158/41/3
f 5/1/4 33/31/4 140/31/4 126/1/4
f 30/28/4 29/27/4 136/27/4 137/28/4
f 115/116/4 15/4/4 129/4/4 159/116/4
f 7/12/3 43/55/3 150/55/3 128/12/3
f 31/29/4 30/28/4 137/28/4 138/29/4
f 116/117/4 115/116/4 159/116/4 160/117/4
f 43/55/3 44/57/3 151/57/3 150/55/3
f 42/14/3 6/2/3 127/2/3 149/14/3
f 32/30/4 31/29/4 138/29/4 139/30/4
f 117/118/4 116/117/4 160/117/4 161/118/4
f 44/57/3 45/59/3 152/59/3 151/57/3
f 33/31/4 32/30/4 139/30/4 140/31/4
f 118/119/4 117/118/4 161/118/4 162/119/4
f 45/59/3 46/61/3 153/61/3 152/59/3
f 2/13/2 7/12/2 128/12/2 124/13/2
